<?xml version='1.0'?>
<svg xmlns='http://www.w3.org/2000/svg' version='1.2' baseProfile='tiny' width='210' height='67' style='fill:#737373;'>
    <path d="m30.01 11.24c-9.437-0.1334-18.53 6.118-21.77 14.99-3.564 8.927-0.7992 19.87 6.598 26.02 7.206 6.346 18.42 7.441 26.7 2.567 7.601-4.228 12.31-12.95 11.77-21.62-0.1072-0.7296 0.3792-2.068-0.8128-1.685-1.57 0.02062-3.139 0.04125-4.709 0.06187 0.1605 3.777-0.04102 7.693-1.903 11.08-3.463 7.083-11.99 11.1-19.66 9.312-7.596-1.519-13.59-8.508-13.99-16.24-0.6427-7.711 4.4-15.41 11.71-17.93 7.045-2.686 15.58-0.2015 20.13 5.793 0.557 0.3607 1.014 1.876 1.648 1.346 1.303-1.095 2.605-2.19 3.908-3.285-2.618-3.322-5.685-6.405-9.603-8.154-3.116-1.48-6.561-2.256-10.01-2.258z" style="stroke-linecap:square;stroke-linejoin:bevel"/>
    <path d="m49.54 25.82c-3.802-0.3492-7.604-0.6983-11.41-1.047 4.112-3.456 8.224-6.913 12.34-10.37-0.3097 3.806-0.6195 7.611-0.9292 11.42z" style="image-rendering:auto;stroke-width:1.232pt"/>
    <path d="m51.45 12.51c-5.116 4.3-10.23 8.6-15.35 12.9l14.19 1.303c0.3877-4.734 0.7705-9.469 1.156-14.2zm-1.957 3.789c-0.2337 2.876-0.4674 5.751-0.7012 8.627-2.874-0.2637-5.747-0.5273-8.621-0.791 3.107-2.612 6.215-5.224 9.322-7.836z"/>
    <g style='paint-order:normal'><rect x="177.5" y="31.16" width="4.707" height="17.41" ry="1.623"/>
    <path d="m182.6 25.1a2.708 2.708 0 0 1-2.588 2.741 2.708 2.708 0 0 1-2.82-2.5 2.708 2.708 0 0 1 2.41-2.897 2.708 2.708 0 0 1 2.972 2.318"/>
    <path d="m84.43 30.94a20.56 20.56 0 0 1 20.55-20.5 20.56 20.56 0 0 1 20.58 20.48"
        style="fill:none;mix-blend-mode:normal;stroke-linecap:square;stroke-linejoin:bevel;stroke-width:5.5;stroke:#737373"/>
    <rect x="81.68" y="30.2" width="5.505" height="26.85" ry="2.988"/>
    <rect x="122.8" y="30.2" width="5.505" height="26.85" ry="2.988"/>
    <rect x="83.24" y="38.68" width="12.02" height="18.38" ry="1.623"/>
    <rect x="114.7" y="38.68" width="11.63" height="18.38" ry="1.623"/></g>
    <circle cx='180' cy='35' r='20' style='stroke:#737373;stroke-width:6;fill:none;'/>
</svg>
