<?xml version='1.0'?>
<svg xmlns='http://www.w3.org/2000/svg' version='1.2' baseProfile='tiny' width='210' height='148'>
    <g transform="matrix(1.33 0 0 -1.33 0 119)" style="fill:#009682">
        <path d="m16.2 63.5c-3.67-4.46-6.84-9.36-9.29-14.6l64.1-29.8-54.8 44.4"/>
        <path d="m70.9 19.1-29.9 63.6c-5.33-2.45-10.2-5.47-14.7-9.07l44.6-54.5"/>
        <path d="m2.26 36.2c-1.44-5.47-2.16-11.2-2.23-17.1h70.9l-68.7 17.1"/>
        <path d="m70.9 19.1s37.6 95 65.1 35.5c4.09-3.15-4.62 7.28 13.2-9.78 3.74 30.8-21.4 39.4-25.4 42.2-39.9 9.98-57.9-37.7-52.9-67.9" style="fill:#000"/>
        <path d="m149 47.9s-38-92-64.1-31.8c-34.4 25.5 3.57-8.22-13.9 9.25-4.46-30.7 19.6-41.2 23.5-44.1 39.7-10.9 58.7 36.3 54.5 66.7" style="fill:#0d4551"/>
        <path d="m64.5 29.1 30.1-19.7-5.28 24.7z" style="fill:#0d4551"/>
        <path d="m157 42.1-29 21.2 3.97-24.9z" style="fill:#000"/>
    </g>
</svg>
