<?xml version="1.0" encoding="UTF-8"?>
<svg version="1.1" viewBox="0 0 400 309" xmlns="http://www.w3.org/2000/svg"><path d="m182.6 20.63c-1.738-0.06041-3.558-0.03578-5.463 0.07422-4.049 0.234-7.759 0.4286-8.244 0.4316-0.484 3e-3 -3.127-0.1375-5.873-0.3125-8.072-0.514-14.51 1.329-20.04 5.736-0.847 0.676-2.331 1.657-3.297 2.182-2.406 1.308-9.237 9.436-11.22 13.36-1.555 3.066-1.787 3.256-5.117 4.186-12.35 3.45-20.84 11.24-22.88 20.97-1.051 5.023-0.7281 5.411 2.256 2.711 2.368-2.143 2.452-2.172 2.639-0.8594 0.272 1.903-2.173 5.342-6.18 8.686-5.911 4.935-11.97 11.52-11.26 12.24 0.133 0.133 1.928 0.5137 3.99 0.8457 3.596 0.579 7.441 1.847 12.83 4.229 3.165 1.399 3.063 1.415 3.094-0.5059 0.098-5.982 2.774-5.541 3.309 0.5449 0.605 6.874 2.773 10.97 7.518 14.22 4.511 3.084 4.673 12.11 0.2168 12.11-1.664 0-1.29 1.065 0.8262 2.355 2.908 1.773 10.33 1.68 12.05-0.1524 3.856-4.117 2.871-11.3-2.57-18.73-8.436-11.53-1.766-25.41 7.703-16.04 1.938 1.92 4.9 4.21 6.58 5.09 3.82 1.999 5.077 4.919 3.49 8.102-1.218 2.441-0.8566 2.932 2.152 2.916 6.212-0.033 11.68-4.492 9.553-7.791-5.352-8.309 1.752-26.26 10.39-26.26 5.412-1e-6 10.65 10.26 9.637 18.86-0.508 4.288 1.277 5.415 6.227 3.932 2.807-0.841 4.499-3.866 4.537-8.107 0.09-10.13 3.54-21.92 6.857-23.43 1.661-0.757 8.94-0.8577 10.07-0.1387 0.474 0.301 1.611 0.0683 2.914-0.5957 10.04-5.12 17.9 7.647 12.52 20.35-4.472 10.56-1.394 19.18 7.066 19.79 2.888 0.206 2.726 0.727 1.932-6.123-0.606-5.24 2.158-8.098 7.812-8.076 5.836 0.023 7.355 2.49 7.871 12.78 0.222 4.433 0.5942 8.534 0.8262 9.113 0.55 1.369 4.747 3.505 6.066 3.086 2.273-0.722 6.17 2.74 7.303 6.488 1.684 5.565-0.2039 9.779-6.336 14.16-2.393 1.709-1.564 2.234 3.525 2.234h4.309l3.268-3.523c3.424-3.695 4.638-6.495 5.346-12.33 0.572-4.714 0.8501-5.582 1.787-5.582 2.28 0 2.599 9.598 0.5449 16.38-0.789 2.606-0.8462 3.8-0.3262 6.787 0.701 4.023-0.3192 9.623-2.115 11.61-1.23 1.36-0.7033 7.113 0.8476 9.244 1.605 2.206 6.319 4.257 10.57 4.598 2.02 0.163 3.672 0.4839 3.672 0.7129 0 0.854-2.194 2.359-3.438 2.359-1.435 0-2.436 1.925-2.436 4.686 0 1.5 0.4647 1.904 4.473 3.885 2.46 1.215 5.302 3.031 6.314 4.035 4.061 4.027 6.973 7.721 8.43 10.7 0.843 1.721 1.868 3.131 2.279 3.131 1.415 0 6.594-5.627 6.797-7.385 0.157-1.353 0.6509-1.846 2.545-2.543 8.118-2.985 10.46-5.933 10.77-13.55 0.28-6.971-0.7071-8.686-5.412-9.4l-2.799-0.4238 0.3887 2.816c0.679 4.941-1.629 7.538-5.973 6.723-2.517-0.472-5.07-5.493-4.781-9.406l0.1738-2.361h3.039c5.073 0 8.923-4.364 8.979-10.18 0.042-4.445-5.264-8.209-5.742-4.074-0.629 5.444-8.424 4.462-8.217-1.035 0.137-3.664-0.5739-3.941-12.67-4.959-7.673-0.646-7.691-0.6525-8.895-2.98-1.105-2.138-0.9137-2.498 1.32-2.477 4.086 0.038 22.07 1.34 26.3 1.904 5.344 0.714 6.776 0.5494 16.15-1.852 20.06-5.136 28.82-9.837 34.83-18.7 0.986-1.453 3.036-4.097 4.555-5.873 1.519-1.777 4.815-6.006 7.326-9.398 2.512-3.392 5.453-7.159 6.535-8.371 2.732-3.058 2.544-3.377-1.996-3.377-6.539-2e-3 -19.28-1.716-28.34-3.812-22.51-5.213-38.83-4.839-54.84 1.256-5.265 2.005-5.903 2.291-11.31 5.053-4.138 2.111-7.137 2.642-7.633 1.35-1.004-2.617 3.115-6.17 10.85-9.363 10.54-4.351 10.56-4.373 6.703-10.25-2.196-3.35-6.647-6.055-11.24-6.832l-2.148-0.3613-0.0469-6.287c-0.086-11.38-5.247-22.88-11.62-25.87-4.196-1.972-14.95-1.297-20.62 1.295l-3.119 1.428-2.975-1.471c-3.169-1.568-10.89-2.46-14.86-1.715-1.833 0.344-5.176 2.491-10.48 6.729-3.452 2.761-3.336 2.793-5.5-1.49-4.57-9.045-12.68-13.66-24.85-14.08zm30.97 44.45c-1.24 0.2101-2.479 1.503-3.92 3.912-0.61 1.02-0.7715 0.9656-2.439-0.8184-5.455-5.833-11.25 0.3323-12.55 13.36-1.359 13.57-2.263 15.31-8.883 17.15-6.617 1.841-15.08-2.851-12.81-7.1 1.362-2.543 0.7409-7.114-1.578-11.63-2.612-5.087-2.346-5.014-5.463-1.506-4.73 5.325-5.874 10.56-3.416 15.62 2.27 4.671-0.0334 11.97-4.482 14.19-8.285 4.143-23.73-2.109-18.4-7.445l1.277-1.279-1.41-0.9238c-2.878-1.884-5.156-4.222-6.146-6.307-0.932-1.964-1.07-2.049-1.656-1.023-1.811 3.17 0.3179 11.67 4.336 17.31 1.987 2.791 2.319 4.907 1.639 10.43-1.075 8.735-3.38 11.06-11.54 11.64l-5.387 0.3848-0.6113 2.113c-0.336 1.163-0.7433 3.438-0.9043 5.053-0.162 1.616-0.4107 4.054-0.5547 5.42-0.311 2.964 0.5696 3.657 5.518 4.342 5.335 0.738 4.971 3.249-1.33 9.209-5.786 5.472-9.965 6.529-15.55 3.93-5.66-2.635-6.675-1.595-7.861 8.035-0.867 7.037 1.674 8.663 7.879 5.041 5.107-2.981 28.38-6.152 40.13-5.467 14.67 0.854 21.5 1.504 27.88 2.656 14.76 2.665 28.7 2.597 42.02-0.207 21.44-4.513 45.99-6.384 50.81-3.871 5.179 2.702 6.616-0.2121 2.092-4.244-4.155-3.703-4.832-5.033-5.291-10.41-0.203-2.386-0.4944-4.541-0.6484-4.789-0.153-0.249 0.296-1.43 1-2.623 1.266-2.145 2.016-6.73 1.1-6.73-0.261 0-1.627 0.5231-3.035 1.162-7.18 3.258-14.95-0.1904-16.67-7.398-1.674-7.009-0.8781-9.804 2.004-7.043 3.736 3.579 7.675-0.9006 5.584-6.35-0.405-1.056-3.756-1.305-3.756-0.2793 0 0.627-0.96 0.5804-6.461-0.3086-4.309-0.696-4.932-3.268-2.643-10.91 2.852-9.53 0.7366-15.72-3.818-11.16-1.224 1.224-1.606 3.525-0.5859 3.525 2.791 0-2.705 5.67-6.307 6.506-9.436 2.191-15.9-3.822-16.48-15.32l-0.252-5 2.709-5.18c3.456-6.608 3.623-9.336 0.7988-13.09-1.445-1.92-2.687-2.792-3.928-2.582zm106.4 20.64c4.906-0.214 25.16 3.64 28.24 5.375 5.706 3.207 1.998 7.201-4.926 5.307-14.36-3.929-41.48-1.546-54.63 4.801-4.381 2.113-5.205 1.841-5.205-1.717 0-5.239 13-11.15 28.49-12.95 3.554-0.413 7.168-0.7823 8.033-0.8203zm-241.2 8.168c-1.984 0.05369-3.741 0.2236-5.049 0.5254-1.13 0.261-4.038 0.8021-6.461 1.203-3.925 0.65-14.18 3.021-32.01 7.398-4.48 1.1-7.44 1.44-12.48 1.438-6.009-4e-3 -7.723 0.4118-6.02 1.465 0.325 0.201 2.566 2.794 4.98 5.762 2.414 2.969 6.651 8.172 9.418 11.56 13.59 16.66 12.88 16.28 39.93 21.51 6.598 1.276 23.29 0.731 28.09-0.918 4.188-1.441 5.611-0.2969 2.689 2.162-2.47 2.078-5.117 2.615-14.89 3.02-9.855 0.408-9.512 0.2161-9.656 5.412-0.117 4.224-1.561 4.537-7.4 1.609-5.972-2.995-6.34-2.835-7.004 3.039-0.659 5.82 2.231 10.43 7.98 12.73 2.583 1.033 2.645 1.319 1.064 4.803-2.079 4.581-1.164 8.292 2.617 10.63 1.817 1.123 1.979 1.426 1.48 2.738-0.705 1.854-0.7195 10.22-0.01953 11.33 0.391 0.619 0.8884 0.1034 1.984-2.057 0.804-1.584 2.628-4.466 4.053-6.404 1.425-1.938 2.744-3.92 2.93-4.404 0.186-0.485 2.735-2.599 5.664-4.699 5.968-4.28 5.858-4.108 4.115-6.467-1.863-2.519-2.077-7.049-0.5488-11.58 0.678-2.009 1.232-4.708 1.232-5.998 0-2.263 0.0881-2.37 2.496-3.018 1.373-0.369 3.572-1.301 4.885-2.07 2.385-1.397 3.779-1.151 3.779 0.668 0 2.954 5.602 3.884 9.684 1.607 3.535-1.971 4.069-3.378 1.477-3.896-3.865-0.773-5.206-8.066-3.533-19.22 0.567-3.785 0.5889-5.339 0.0879-6.275-1.147-2.145-0.7933-5.842 0.8027-8.369 2.086-3.305 1.334-5.837-3.203-10.78-1.231-1.341-2.733-3.486-3.336-4.766-1.361-2.888-4.55-4.931-11.67-7.48-4.185-1.498-12.2-2.382-18.15-2.221zm251.3 5.34c5.73-0.5036 8.328 7.011 2.68 11.85-9.777 8.369-41.11 9.914-41.11 2.027 0-1.315 1.486-1.216 5.58 0.3711 4.939 1.914 13.32 0.9733 22.74-2.553 3.437-1.286 5.625-4.443 5.912-8.527 0.086-1.226 0.5606-1.964 1.559-2.426 0.9315-0.4304 1.814-0.6663 2.633-0.7383zm-253.7 2.678c6.144 0.0684 17.58 1.425 20.18 2.715 5.507 2.73 7.545 6.819 3.471 6.965-1.373 0.05-2.893 0.1326-3.377 0.1836-0.485 0.052-2.036-0.2386-3.449-0.6426-6.594-1.885-19.86-2.186-27.4-0.6211-3.869 0.802-9.402 1.618-12.3 1.814-5.324 0.36-11.38 1.3-13.53 2.098-2.807 1.042-5.459-2.24-3.033-3.754 3.598-2.247 22.56-6.888 31.81-7.785 1.938-0.188 3.635-0.4395 3.77-0.5605 0.3498-0.3132 1.809-0.4349 3.857-0.4121zm130.2 10.29c6.002-0.6976 10.64 10.6 7.807 20.35-3.781 13.01-15.48 6.828-15.48-8.174 0-6.435 2.038-10.18 6.461-11.87 0.4105-0.1572 0.8166-0.2562 1.217-0.3027zm-40.95 0.9726c4.424 0.7734 8.476 6.913 7.812 13.89-0.971 10.22-5.997 15.47-12.6 13.17-5.949-2.074-5.652-21.1 0.4043-25.88 1.396-1.102 2.912-1.441 4.387-1.184zm-110.4 1.9c0.8987-0.1469 1.523 0.12 1.523 0.8555 0 1.465 5.17 6.565 8.133 8.025 2.578 1.27 3.468 1.352 15.66 1.436 12.14 0.084 12.92 0.1558 12.92 1.176 0 4.275-23.13 4.866-36.02 0.9199-7.094-2.171-9.626-7.249-5.383-10.79 1.096-0.915 2.269-1.474 3.168-1.621zm201.9 57.13c-4.739 3.8e-4 -9.885 0.4039-14.44 1.213-4.2 0.745-10.02 1.777-12.92 2.293-25.71 4.564-28.43 4.557-60.79-0.1777-17.1-2.501-36.11-3.143-45.52-1.535-14.43 2.464-30.56 13.1-36.9 24.33-0.701 1.24-2.136 3.688-3.191 5.438-8.724 14.47-5.336 42.84 6.848 57.34 10.87 12.94 44.15 28.87 65.6 31.4 30.57 3.604 60.1-0.8685 94.52-14.31 38.66-15.1 61.31-49 49.02-73.36-0.98-1.941-2.462-5.431-3.295-7.758-3.965-11.08-14.31-20.17-26.93-23.66-2.919-0.8085-7.249-1.211-11.99-1.211zm-42.44 16.6c0.43 0.123 1.246 0.2226 1.814 0.2226 1.818 0 2.565 2.697 1.418 5.115-2.672 5.629-11.9 7.587-14.33 3.041-1.497-2.795 3.149-7.038 9.141-8.348 0.646-0.141 1.526-0.1542 1.957-0.0312zm-47.45 0.2988c2.35 0.1034 5.008 1.408 7.371 3.771 5.604 5.604 0.7329 10.14-6.953 6.473-5.291-2.524-7.22-6.718-4.188-9.104 1.059-0.8332 2.359-1.203 3.77-1.141zm117.2 45.25c1.774 0.0312 2.732 0.2688 3.105 0.7188 3.157 3.803-35.43 13.1-50.76 12.23-2.908-0.165-15.33 0.0277-27.61 0.4277-41.35 1.348-90.02-1.249-109.8-5.859-2.585-0.601-6.02-1.261-7.635-1.467-4.731-0.605-5.083-0.7872-4.881-2.531 0.283-2.448 16.3-2.726 36.01-0.625 3.23 0.344 12.88 0.8614 21.44 1.148 8.561 0.287 21.12 0.7417 27.9 1.012 18.98 0.755 68.63-0.5829 83.7-2.256 3.069-0.341 7.957-0.8878 10.87-1.217 2.907-0.33 7.269-0.8066 9.691-1.059 3.639-0.379 6.23-0.5547 8.004-0.5234z" fill="#65026e" fill-rule="evenodd" stroke-linecap="square" stroke-width="10.39"/></svg>
